<svg xmlns="http://www.w3.org/2000/svg" width="920" height="360" viewBox="0 0 920 360"><rect width="920" height="360" fill="#0f172a"/><text x="40" y="44" fill="#fff" font-size="28" font-family="Arial" font-weight="700">Local + Cloud Routing Pattern</text><rect x="70" y="120" width="180" height="90" rx="12" fill="#1d4ed8"/><text x="115" y="168" fill="#fff" font-size="22" font-family="Arial">Task intake</text><rect x="300" y="120" width="180" height="90" rx="12" fill="#0f766e"/><text x="338" y="168" fill="#fff" font-size="22" font-family="Arial">Router</text><rect x="540" y="80" width="150" height="70" rx="12" fill="#15803d"/><text x="573" y="123" fill="#fff" font-size="20" font-family="Arial">Local lane</text><rect x="540" y="190" width="150" height="70" rx="12" fill="#b45309"/><text x="570" y="233" fill="#fff" font-size="20" font-family="Arial">Cloud lane</text><rect x="740" y="120" width="120" height="90" rx="12" fill="#7c3aed"/><text x="772" y="168" fill="#fff" font-size="22" font-family="Arial">Review</text><line x1="250" y1="165" x2="300" y2="165" stroke="#94a3b8" stroke-width="3"/><line x1="480" y1="165" x2="540" y2="115" stroke="#94a3b8" stroke-width="3"/><line x1="480" y1="165" x2="540" y2="225" stroke="#94a3b8" stroke-width="3"/><line x1="690" y1="115" x2="740" y2="165" stroke="#94a3b8" stroke-width="3"/><line x1="690" y1="225" x2="740" y2="165" stroke="#94a3b8" stroke-width="3"/></svg>